# Blender 4.3.2
# www.blender.org
o Parasolka
v -13.379734 -3.323885 9.053457
v -13.735310 -3.364185 9.277346
v -13.856213 -3.600506 9.605552
v -13.671621 -3.894415 9.845816
v -13.289663 -4.073745 9.857395
v -12.934088 -4.033445 9.633508
v -12.813185 -3.797124 9.305302
v -12.997776 -3.503215 9.065038
v -13.281756 -3.579232 9.561034
v -13.284616 -3.571725 9.546186
v -13.295032 -3.572906 9.552746
v -13.298574 -3.579829 9.562361
v -13.293166 -3.588440 9.569401
v -13.281976 -3.593694 9.569740
v -13.271560 -3.592513 9.563180
v -13.268017 -3.585590 9.553564
v -13.273425 -3.576979 9.546526
v -13.514830 -4.091717 9.086967
v -13.525247 -4.092897 9.093525
v -13.528788 -4.099821 9.103141
v -13.523380 -4.108431 9.110180
v -13.512191 -4.113685 9.110519
v -13.501773 -4.112504 9.103960
v -13.498231 -4.105581 9.094344
v -13.503639 -4.096970 9.087306
v -13.532059 -4.144599 9.061742
v -13.730916 -3.354261 9.286110
v -13.375340 -3.313962 9.062222
v -13.851819 -3.590582 9.614316
v -13.667227 -3.884492 9.854580
v -13.285270 -4.063821 9.866159
v -12.929693 -4.023522 9.642272
v -12.808790 -3.787201 9.314066
v -12.993382 -3.493291 9.073802
v -13.277363 -3.569309 9.569798
v -13.735310 -3.364185 9.277346
v -13.735310 -3.364185 9.277346
v -13.735310 -3.364185 9.277346
v -13.379734 -3.323885 9.053457
v -13.379734 -3.323885 9.053457
v -13.379734 -3.323885 9.053457
v -13.379734 -3.323885 9.053457
v -13.856213 -3.600506 9.605552
v -13.856213 -3.600506 9.605552
v -13.856213 -3.600506 9.605552
v -13.856213 -3.600506 9.605552
v -13.671621 -3.894415 9.845816
v -13.671621 -3.894415 9.845816
v -13.671621 -3.894415 9.845816
v -13.671621 -3.894415 9.845816
v -13.289663 -4.073745 9.857395
v -13.289663 -4.073745 9.857395
v -13.289663 -4.073745 9.857395
v -13.289663 -4.073745 9.857395
v -12.934088 -4.033445 9.633508
v -12.934088 -4.033445 9.633508
v -12.934088 -4.033445 9.633508
v -12.934088 -4.033445 9.633508
v -12.934088 -4.033445 9.633508
v -12.813185 -3.797124 9.305302
v -12.813185 -3.797124 9.305302
v -12.813185 -3.797124 9.305302
v -12.813185 -3.797124 9.305302
v -12.997776 -3.503215 9.065038
v -12.997776 -3.503215 9.065038
v -12.997776 -3.503215 9.065038
v -12.997776 -3.503215 9.065038
v -13.281756 -3.579232 9.561034
v -13.281756 -3.579232 9.561034
v -13.281756 -3.579232 9.561034
v -13.281756 -3.579232 9.561034
v -13.281756 -3.579232 9.561034
v -13.281756 -3.579232 9.561034
v -13.281756 -3.579232 9.561034
v -13.284616 -3.571725 9.546186
v -13.284616 -3.571725 9.546186
v -13.284616 -3.571725 9.546186
v -13.295032 -3.572906 9.552746
v -13.295032 -3.572906 9.552746
v -13.298574 -3.579829 9.562361
v -13.298574 -3.579829 9.562361
v -13.293166 -3.588440 9.569401
v -13.293166 -3.588440 9.569401
v -13.281976 -3.593694 9.569740
v -13.271560 -3.592513 9.563180
v -13.271560 -3.592513 9.563180
v -13.271560 -3.592513 9.563180
v -13.268017 -3.585590 9.553564
v -13.268017 -3.585590 9.553564
v -13.273425 -3.576979 9.546526
v -13.514830 -4.091717 9.086967
v -13.514830 -4.091717 9.086967
v -13.514830 -4.091717 9.086967
v -13.525247 -4.092897 9.093525
v -13.525247 -4.092897 9.093525
v -13.525247 -4.092897 9.093525
v -13.525247 -4.092897 9.093525
v -13.528788 -4.099821 9.103141
v -13.528788 -4.099821 9.103141
v -13.528788 -4.099821 9.103141
v -13.528788 -4.099821 9.103141
v -13.523380 -4.108431 9.110180
v -13.523380 -4.108431 9.110180
v -13.523380 -4.108431 9.110180
v -13.523380 -4.108431 9.110180
v -13.512191 -4.113685 9.110519
v -13.512191 -4.113685 9.110519
v -13.512191 -4.113685 9.110519
v -13.512191 -4.113685 9.110519
v -13.512191 -4.113685 9.110519
v -13.501773 -4.112504 9.103960
v -13.501773 -4.112504 9.103960
v -13.501773 -4.112504 9.103960
v -13.498231 -4.105581 9.094344
v -13.498231 -4.105581 9.094344
v -13.498231 -4.105581 9.094344
v -13.498231 -4.105581 9.094344
v -13.503639 -4.096970 9.087306
v -13.503639 -4.096970 9.087306
v -13.503639 -4.096970 9.087306
v -13.503639 -4.096970 9.087306
v -13.503639 -4.096970 9.087306
v -13.532059 -4.144599 9.061742
v -13.532059 -4.144599 9.061742
v -13.532059 -4.144599 9.061742
v -13.532059 -4.144599 9.061742
v -13.532059 -4.144599 9.061742
v -13.532059 -4.144599 9.061742
v -13.532059 -4.144599 9.061742
v -13.730916 -3.354261 9.286110
v -13.730916 -3.354261 9.286110
v -13.730916 -3.354261 9.286110
v -13.730916 -3.354261 9.286110
v -13.730916 -3.354261 9.286110
v -13.375340 -3.313962 9.062222
v -13.375340 -3.313962 9.062222
v -13.375340 -3.313962 9.062222
v -13.375340 -3.313962 9.062222
v -13.851819 -3.590582 9.614316
v -13.851819 -3.590582 9.614316
v -13.851819 -3.590582 9.614316
v -13.851819 -3.590582 9.614316
v -13.667227 -3.884492 9.854580
v -13.667227 -3.884492 9.854580
v -13.667227 -3.884492 9.854580
v -13.667227 -3.884492 9.854580
v -13.285270 -4.063821 9.866159
v -13.285270 -4.063821 9.866159
v -13.285270 -4.063821 9.866159
v -13.285270 -4.063821 9.866159
v -12.929693 -4.023522 9.642272
v -12.929693 -4.023522 9.642272
v -12.929693 -4.023522 9.642272
v -12.808790 -3.787201 9.314066
v -12.808790 -3.787201 9.314066
v -12.808790 -3.787201 9.314066
v -12.808790 -3.787201 9.314066
v -12.993382 -3.493291 9.073802
v -12.993382 -3.493291 9.073802
v -12.993382 -3.493291 9.073802
v -12.993382 -3.493291 9.073802
v -13.277363 -3.569309 9.569798
v -13.277363 -3.569309 9.569798
v -13.277363 -3.569309 9.569798
v -13.277363 -3.569309 9.569798
v -13.277363 -3.569309 9.569798
v -13.277363 -3.569309 9.569798
v -13.277363 -3.569309 9.569798
vn -0.0352 -0.6457 -0.7628
vn -0.1621 -0.8937 -0.4183
vn -0.3888 -0.8510 -0.3530
vn -0.5826 -0.5425 -0.6052
vn -0.2094 -0.5002 -0.8402
vn -0.0156 -0.8087 -0.5880
vn -0.5630 -0.7055 -0.4305
vn -0.4361 -0.4575 -0.7750
vn -0.9048 0.4249 -0.0274
vn 0.8423 0.0955 -0.5304
vn 0.4375 -0.6962 0.5691
vn -0.8424 -0.0954 0.5304
vn -0.4373 0.6963 -0.5692
vn 0.2865 0.5598 -0.7775
vn 0.9048 -0.4248 0.0274
vn -0.2865 -0.5597 0.7776
vn 0.3466 -0.8497 0.3974
vn -0.8939 -0.2674 0.3597
vn -0.5013 0.5001 -0.7061
vn 0.2003 0.3679 -0.9080
vn 0.7997 -0.5866 -0.1278
vn -0.3550 -0.7175 0.5993
vn -0.9545 0.2371 -0.1809
vn 0.7392 -0.0822 -0.6685
vn -0.9048 0.4249 -0.0275
vn 0.4373 -0.6963 0.5692
vn -0.8424 -0.0956 0.5304
vn 0.2864 0.5599 -0.7775
vn 0.9048 -0.4249 0.0275
vn -0.2864 -0.5599 0.7775
vn 0.0352 0.6457 0.7628
vn 0.1621 0.8937 0.4183
vn 0.3888 0.8510 0.3530
vn 0.5826 0.5425 0.6052
vn 0.2094 0.5002 0.8402
vn 0.0156 0.8087 0.5880
vn 0.5630 0.7055 0.4305
vn 0.4361 0.4575 0.7750
vn 0.8424 0.0954 -0.5304
vn 0.4372 -0.6963 0.5691
vn 0.9049 -0.4247 0.0274
vn -0.9049 0.4248 -0.0274
vn 0.4373 -0.6962 0.5692
vn -0.8423 -0.0957 0.5304
vn 0.2865 0.5599 -0.7775
vn 0.9048 -0.4250 0.0274
s 0
f 47//1 44//1 69//1
f 36//2 39//2 68//2
f 40//3 65//3 70//3
f 60//4 56//4 71//4
f 51//5 48//5 72//5
f 43//6 37//6 73//6
f 64//7 61//7 9//7
f 55//8 52//8 74//8
f 11//9 95//9 98//9
f 16//10 115//10 118//10
f 85//11 14//11 108//11
f 12//12 99//12 102//12
f 77//13 91//13 94//13
f 76//14 17//14 120//14
f 87//15 112//15 114//15
f 13//16 103//16 106//16
f 107//17 124//17 111//17
f 100//18 125//18 104//18
f 93//19 123//19 96//19
f 119//20 126//20 92//20
f 23//21 127//21 116//21
f 21//22 129//22 22//22
f 19//23 128//23 20//23
f 24//24 26//24 25//24
f 79//25 101//25 80//25
f 89//10 122//10 90//10
f 15//26 110//26 113//26
f 81//27 105//27 82//27
f 75//13 97//13 78//13
f 10//28 121//28 18//28
f 86//29 117//29 88//29
f 83//30 109//30 84//30
f 143//31 163//31 140//31
f 130//32 162//32 135//32
f 136//33 164//33 159//33
f 154//34 165//34 152//34
f 147//35 166//35 144//35
f 139//36 167//36 131//36
f 158//37 35//37 155//37
f 151//38 168//38 148//38
f 63//39 66//39 160//39
f 57//40 153//40 150//40
f 49//12 145//12 142//12
f 42//13 38//13 132//13
f 67//28 41//28 137//28
f 58//41 62//41 156//41
f 53//30 149//30 146//30
f 45//42 141//42 133//42
f 7//10 161//10 33//10
f 59//43 31//43 5//43
f 50//44 29//44 3//44
f 1//13 27//13 138//13
f 8//45 28//45 34//45
f 6//46 157//46 32//46
f 54//30 30//30 4//30
f 46//9 134//9 2//9
