# Blender 4.3.2
# www.blender.org
o Parasolka.001
v -4.933076 21.999216 8.592907
v -14.679010 14.431675 12.111794
v -15.689507 2.535713 16.812691
v -7.372666 -6.720167 19.941849
v 5.399663 -7.914007 19.666285
v 15.145597 -0.346464 16.147400
v 16.156096 11.549494 11.446500
v 7.839253 20.805374 8.317343
v 0.509193 8.897370 18.882563
v 0.349815 9.281629 18.582146
v 0.064313 9.059933 18.685230
v 0.034685 8.711412 18.822948
v 0.278356 8.440248 18.914639
v 0.652547 8.405264 18.906576
v 0.938052 8.626970 18.803455
v 0.967678 8.975497 18.665741
v 0.724006 9.246645 18.574085
v -0.849969 1.216353 -2.085543
v -1.135474 0.994664 -1.982452
v -1.165066 0.646147 -1.844732
v -0.921428 0.374972 -1.753050
v -0.547237 0.339988 -1.761110
v -0.261701 0.561714 -1.864223
v -0.232107 0.910223 -2.001947
v -0.475782 1.181376 -2.093599
v -0.795260 0.128314 -3.588614
v -14.665456 14.522797 12.345299
v -4.919522 22.090338 8.826412
v -15.675952 2.626835 17.046196
v -7.359111 -6.629045 20.175354
v 5.413219 -7.822886 19.899790
v 15.159153 -0.255342 16.380905
v 16.169649 11.640615 11.680004
v 7.852808 20.896496 8.550848
v 0.522748 8.988492 19.116066
v -14.679010 14.431675 12.111794
v -14.679010 14.431675 12.111794
v -14.679010 14.431675 12.111794
v -4.933076 21.999216 8.592907
v -4.933076 21.999216 8.592907
v -4.933076 21.999216 8.592907
v -4.933076 21.999216 8.592907
v -15.689507 2.535713 16.812691
v -15.689507 2.535713 16.812691
v -15.689507 2.535713 16.812691
v -15.689507 2.535713 16.812691
v -15.689507 2.535713 16.812691
v -7.372666 -6.720167 19.941849
v -7.372666 -6.720167 19.941849
v -7.372666 -6.720167 19.941849
v -7.372666 -6.720167 19.941849
v 5.399663 -7.914007 19.666285
v 5.399663 -7.914007 19.666285
v 5.399663 -7.914007 19.666285
v 5.399663 -7.914007 19.666285
v 15.145597 -0.346464 16.147400
v 15.145597 -0.346464 16.147400
v 15.145597 -0.346464 16.147400
v 16.156096 11.549494 11.446500
v 16.156096 11.549494 11.446500
v 16.156096 11.549494 11.446500
v 16.156096 11.549494 11.446500
v 16.156096 11.549494 11.446500
v 7.839253 20.805374 8.317343
v 7.839253 20.805374 8.317343
v 7.839253 20.805374 8.317343
v 7.839253 20.805374 8.317343
v 0.509193 8.897370 18.882563
v 0.509193 8.897370 18.882563
v 0.509193 8.897370 18.882563
v 0.509193 8.897370 18.882563
v 0.509193 8.897370 18.882563
v 0.509193 8.897370 18.882563
v 0.509193 8.897370 18.882563
v 0.349815 9.281629 18.582146
v 0.349815 9.281629 18.582146
v 0.349815 9.281629 18.582146
v 0.064313 9.059933 18.685230
v 0.064313 9.059933 18.685230
v 0.034685 8.711412 18.822948
v 0.034685 8.711412 18.822948
v 0.278356 8.440248 18.914639
v 0.278356 8.440248 18.914639
v 0.652547 8.405264 18.906576
v 0.938052 8.626970 18.803455
v 0.938052 8.626970 18.803455
v 0.938052 8.626970 18.803455
v 0.967678 8.975497 18.665741
v 0.967678 8.975497 18.665741
v 0.724006 9.246645 18.574085
v -0.849969 1.216353 -2.085543
v -0.849969 1.216353 -2.085543
v -0.849969 1.216353 -2.085543
v -1.135474 0.994664 -1.982452
v -1.135474 0.994664 -1.982452
v -1.135474 0.994664 -1.982452
v -1.135474 0.994664 -1.982452
v -1.165066 0.646147 -1.844732
v -1.165066 0.646147 -1.844732
v -1.165066 0.646147 -1.844732
v -1.165066 0.646147 -1.844732
v -0.921428 0.374972 -1.753050
v -0.921428 0.374972 -1.753050
v -0.921428 0.374972 -1.753050
v -0.921428 0.374972 -1.753050
v -0.547237 0.339988 -1.761110
v -0.547237 0.339988 -1.761110
v -0.547237 0.339988 -1.761110
v -0.547237 0.339988 -1.761110
v -0.547237 0.339988 -1.761110
v -0.261701 0.561714 -1.864223
v -0.261701 0.561714 -1.864223
v -0.261701 0.561714 -1.864223
v -0.232107 0.910223 -2.001947
v -0.232107 0.910223 -2.001947
v -0.232107 0.910223 -2.001947
v -0.232107 0.910223 -2.001947
v -0.475782 1.181376 -2.093599
v -0.475782 1.181376 -2.093599
v -0.475782 1.181376 -2.093599
v -0.475782 1.181376 -2.093599
v -0.475782 1.181376 -2.093599
v -0.795260 0.128314 -3.588614
v -0.795260 0.128314 -3.588614
v -0.795260 0.128314 -3.588614
v -0.795260 0.128314 -3.588614
v -0.795260 0.128314 -3.588614
v -0.795260 0.128314 -3.588614
v -0.795260 0.128314 -3.588614
v -14.665456 14.522797 12.345299
v -14.665456 14.522797 12.345299
v -14.665456 14.522797 12.345299
v -14.665456 14.522797 12.345299
v -14.665456 14.522797 12.345299
v -4.919522 22.090338 8.826412
v -4.919522 22.090338 8.826412
v -4.919522 22.090338 8.826412
v -4.919522 22.090338 8.826412
v -15.675952 2.626835 17.046196
v -15.675952 2.626835 17.046196
v -15.675952 2.626835 17.046196
v -7.359111 -6.629045 20.175354
v -7.359111 -6.629045 20.175354
v -7.359111 -6.629045 20.175354
v -7.359111 -6.629045 20.175354
v 5.413219 -7.822886 19.899790
v 5.413219 -7.822886 19.899790
v 5.413219 -7.822886 19.899790
v 5.413219 -7.822886 19.899790
v 15.159153 -0.255342 16.380905
v 15.159153 -0.255342 16.380905
v 15.159153 -0.255342 16.380905
v 15.159153 -0.255342 16.380905
v 15.159153 -0.255342 16.380905
v 16.169649 11.640615 11.680004
v 16.169649 11.640615 11.680004
v 16.169649 11.640615 11.680004
v 7.852808 20.896496 8.550848
v 7.852808 20.896496 8.550848
v 7.852808 20.896496 8.550848
v 7.852808 20.896496 8.550848
v 0.522748 8.988492 19.116066
v 0.522748 8.988492 19.116066
v 0.522748 8.988492 19.116066
v 0.522748 8.988492 19.116066
v 0.522748 8.988492 19.116066
v 0.522748 8.988492 19.116066
v 0.522748 8.988492 19.116066
vn 0.1867 -0.1600 -0.9693
vn 0.1518 -0.5707 -0.8070
vn -0.0760 -0.6352 -0.7686
vn -0.3631 -0.3156 -0.8767
vn -0.0266 -0.0543 -0.9982
vn 0.2606 -0.3739 -0.8901
vn -0.2892 -0.5295 -0.7975
vn -0.2543 -0.1187 -0.9598
vn -0.9954 0.0930 0.0215
vn 0.7595 0.5898 -0.2743
vn 0.6482 -0.7213 0.2439
vn -0.7596 -0.5897 0.2742
vn -0.6482 0.7214 -0.2439
vn 0.0788 0.9271 -0.3664
vn 0.9954 -0.0930 -0.0215
vn -0.0788 -0.9271 0.3664
vn 0.6151 -0.7884 0.0078
vn -0.7496 -0.6609 0.0373
vn -0.6416 0.6101 -0.4650
vn 0.0631 0.8095 -0.5837
vn 0.9517 -0.1794 -0.2494
vn -0.0896 -0.9879 0.1266
vn -0.9782 0.0010 -0.2077
vn 0.7230 0.4826 -0.4944
vn -0.9954 0.0931 0.0215
vn 0.6482 -0.7214 0.2439
vn -0.7595 -0.5898 0.2743
vn 0.9954 -0.0931 -0.0215
vn -0.1867 0.1600 0.9693
vn -0.1518 0.5707 0.8070
vn 0.0760 0.6352 0.7686
vn 0.3631 0.3156 0.8767
vn 0.0266 0.0543 0.9982
vn -0.2606 0.3739 0.8901
vn 0.2892 0.5295 0.7975
vn 0.2543 0.1187 0.9598
vn 0.7596 0.5898 -0.2742
vn -0.7596 -0.5898 0.2743
vn 0.7596 0.5898 -0.2743
vn -0.7596 -0.5898 0.2742
s 0
f 48//1 44//1 69//1
f 36//2 39//2 68//2
f 40//3 65//3 70//3
f 59//4 57//4 71//4
f 52//5 49//5 72//5
f 43//6 37//6 73//6
f 64//7 60//7 9//7
f 56//8 53//8 74//8
f 11//9 95//9 98//9
f 16//10 115//10 118//10
f 85//11 14//11 108//11
f 12//12 99//12 102//12
f 77//13 91//13 94//13
f 76//14 17//14 120//14
f 87//15 112//15 114//15
f 13//16 103//16 106//16
f 107//17 124//17 111//17
f 100//18 125//18 104//18
f 93//19 123//19 96//19
f 119//20 126//20 92//20
f 23//21 127//21 116//21
f 21//22 129//22 22//22
f 19//23 128//23 20//23
f 24//24 26//24 25//24
f 79//25 101//25 80//25
f 89//10 122//10 90//10
f 15//26 110//26 113//26
f 81//27 105//27 82//27
f 75//13 97//13 78//13
f 10//14 121//14 18//14
f 86//28 117//28 88//28
f 83//16 109//16 84//16
f 142//29 163//29 140//29
f 130//30 162//30 135//30
f 136//31 164//31 159//31
f 155//32 165//32 151//32
f 146//33 166//33 143//33
f 139//34 167//34 131//34
f 158//35 35//35 156//35
f 150//36 168//36 147//36
f 61//15 157//15 153//15
f 51//16 54//16 148//16
f 45//9 141//9 133//9
f 62//37 66//37 160//37
f 55//26 58//26 152//26
f 46//38 50//38 144//38
f 42//13 38//13 132//13
f 67//14 41//14 137//14
f 63//15 32//15 6//15
f 4//16 149//16 30//16
f 47//9 134//9 2//9
f 7//39 161//39 33//39
f 5//26 154//26 31//26
f 3//40 145//40 29//40
f 1//13 27//13 138//13
f 8//14 28//14 34//14
