# Blender 4.3.2
# www.blender.org
o Stolek
v -6.333608 5.385252 -1.787786
v -6.333608 6.826296 3.228570
v -5.642706 5.247823 -1.787786
v -5.091243 6.579174 3.228570
v -5.056989 4.856459 -1.787786
v -4.038016 5.875431 3.228570
v -4.665625 4.270741 -1.787786
v -3.334273 4.822205 3.228570
v -4.528195 3.579840 -1.787786
v -3.087152 3.579840 3.228570
v -4.665625 2.888938 -1.787786
v -3.334273 2.337475 3.228570
v -5.056989 2.303221 -1.787786
v -4.038016 1.284249 3.228570
v -5.642706 1.911856 -1.787786
v -5.091243 0.580506 3.228570
v -6.333608 1.774428 -1.787786
v -6.333608 0.333384 3.228570
v -7.024508 1.911856 -1.787786
v -7.575972 0.580506 3.228570
v -7.610226 2.303221 -1.787786
v -8.629198 1.284249 3.228570
v -8.001591 2.888938 -1.787786
v -9.332942 2.337475 3.228570
v -8.139020 3.579840 -1.787786
v -9.580063 3.579840 3.228570
v -8.001591 4.270741 -1.787786
v -9.332942 4.822205 3.228570
v -7.610226 4.856459 -1.787786
v -8.629198 5.875431 3.228570
v -7.024508 5.247823 -1.787786
v -7.575972 6.579174 3.228570
v -6.333608 4.530866 0.543913
v -5.969666 4.458473 0.543913
v -5.661131 4.252316 0.543913
v -5.454975 3.943782 0.543913
v -5.382582 3.579840 0.543913
v -5.454975 3.215898 0.543913
v -5.661131 2.907363 0.543913
v -5.969666 2.701207 0.543913
v -6.333608 2.628814 0.543913
v -6.697549 2.701207 0.543913
v -7.006084 2.907363 0.543913
v -7.212241 3.215898 0.543913
v -7.284633 3.579840 0.543913
v -7.212241 3.943782 0.543913
v -7.006084 4.252316 0.543913
v -6.697549 4.458473 0.543913
v -6.333608 5.939494 1.886242
v -5.430607 5.759875 1.886242
v -4.665080 5.248366 1.886242
v -4.153572 4.482841 1.886242
v -3.973954 3.579840 1.886242
v -4.153572 2.676839 1.886242
v -4.665080 1.911313 1.886242
v -5.430607 1.399804 1.886242
v -6.333608 1.220186 1.886242
v -7.236609 1.399804 1.886242
v -8.002134 1.911313 1.886242
v -8.513643 2.676839 1.886242
v -8.693261 3.579840 1.886242
v -8.513643 4.482841 1.886242
v -8.002134 5.248366 1.886242
v -7.236609 5.759875 1.886242
v -6.333608 5.385252 -1.787786
v -6.333608 5.385252 -1.787786
v -6.333608 5.385252 -1.787786
v -6.333608 5.385252 -1.787786
v -5.642706 5.247823 -1.787786
v -5.642706 5.247823 -1.787786
v -5.642706 5.247823 -1.787786
v -5.642706 5.247823 -1.787786
v -5.642706 5.247823 -1.787786
v -5.091243 6.579174 3.228570
v -5.091243 6.579174 3.228570
v -5.091243 6.579174 3.228570
v -6.333608 6.826296 3.228570
v -6.333608 6.826296 3.228570
v -6.333608 6.826296 3.228570
v -6.333608 6.826296 3.228570
v -6.333608 6.826296 3.228570
v -6.333608 5.939494 1.886242
v -6.333608 5.939494 1.886242
v -6.333608 5.939494 1.886242
v -6.333608 5.939494 1.886242
v -6.333608 5.939494 1.886242
v -5.969666 4.458473 0.543913
v -5.969666 4.458473 0.543913
v -5.969666 4.458473 0.543913
v -5.056989 4.856459 -1.787786
v -5.056989 4.856459 -1.787786
v -4.038016 5.875431 3.228570
v -4.038016 5.875431 3.228570
v -4.038016 5.875431 3.228570
v -4.038016 5.875431 3.228570
v -4.038016 5.875431 3.228570
v -4.038016 5.875431 3.228570
v -4.038016 5.875431 3.228570
v -5.661131 4.252316 0.543913
v -5.661131 4.252316 0.543913
v -5.661131 4.252316 0.543913
v -5.661131 4.252316 0.543913
v -5.661131 4.252316 0.543913
v -5.661131 4.252316 0.543913
v -4.665625 4.270741 -1.787786
v -4.665625 4.270741 -1.787786
v -4.665625 4.270741 -1.787786
v -4.665625 4.270741 -1.787786
v -4.665625 4.270741 -1.787786
v -4.665625 4.270741 -1.787786
v -4.665625 4.270741 -1.787786
v -4.665625 4.270741 -1.787786
v -3.334273 4.822205 3.228570
v -3.334273 4.822205 3.228570
v -3.334273 4.822205 3.228570
v -3.334273 4.822205 3.228570
v -3.334273 4.822205 3.228570
v -5.454975 3.943782 0.543913
v -5.454975 3.943782 0.543913
v -5.454975 3.943782 0.543913
v -5.454975 3.943782 0.543913
v -5.454975 3.943782 0.543913
v -4.528195 3.579840 -1.787786
v -4.528195 3.579840 -1.787786
v -4.528195 3.579840 -1.787786
v -3.087152 3.579840 3.228570
v -3.087152 3.579840 3.228570
v -3.087152 3.579840 3.228570
v -3.087152 3.579840 3.228570
v -5.382582 3.579840 0.543913
v -5.382582 3.579840 0.543913
v -5.382582 3.579840 0.543913
v -5.382582 3.579840 0.543913
v -5.382582 3.579840 0.543913
v -5.382582 3.579840 0.543913
v -4.665625 2.888938 -1.787786
v -4.665625 2.888938 -1.787786
v -4.665625 2.888938 -1.787786
v -4.665625 2.888938 -1.787786
v -4.665625 2.888938 -1.787786
v -3.334273 2.337475 3.228570
v -3.334273 2.337475 3.228570
v -3.334273 2.337475 3.228570
v -5.454975 3.215898 0.543913
v -5.454975 3.215898 0.543913
v -5.454975 3.215898 0.543913
v -5.454975 3.215898 0.543913
v -5.454975 3.215898 0.543913
v -5.056989 2.303221 -1.787786
v -5.056989 2.303221 -1.787786
v -5.056989 2.303221 -1.787786
v -4.038016 1.284249 3.228570
v -4.038016 1.284249 3.228570
v -4.038016 1.284249 3.228570
v -4.038016 1.284249 3.228570
v -4.038016 1.284249 3.228570
v -4.038016 1.284249 3.228570
v -4.038016 1.284249 3.228570
v -5.661131 2.907363 0.543913
v -5.661131 2.907363 0.543913
v -5.661131 2.907363 0.543913
v -5.661131 2.907363 0.543913
v -5.642706 1.911856 -1.787786
v -5.642706 1.911856 -1.787786
v -5.642706 1.911856 -1.787786
v -5.642706 1.911856 -1.787786
v -5.642706 1.911856 -1.787786
v -5.642706 1.911856 -1.787786
v -5.642706 1.911856 -1.787786
v -5.642706 1.911856 -1.787786
v -5.091243 0.580506 3.228570
v -5.091243 0.580506 3.228570
v -5.091243 0.580506 3.228570
v -5.969666 2.701207 0.543913
v -5.969666 2.701207 0.543913
v -5.969666 2.701207 0.543913
v -5.969666 2.701207 0.543913
v -5.969666 2.701207 0.543913
v -6.333608 1.774428 -1.787786
v -6.333608 1.774428 -1.787786
v -6.333608 1.774428 -1.787786
v -6.333608 1.774428 -1.787786
v -6.333608 0.333384 3.228570
v -6.333608 0.333384 3.228570
v -6.333608 0.333384 3.228570
v -6.333608 0.333384 3.228570
v -6.333608 0.333384 3.228570
v -6.333608 2.628814 0.543913
v -6.333608 2.628814 0.543913
v -6.333608 2.628814 0.543913
v -6.333608 2.628814 0.543913
v -6.333608 2.628814 0.543913
v -7.024508 1.911856 -1.787786
v -7.024508 1.911856 -1.787786
v -7.024508 1.911856 -1.787786
v -7.024508 1.911856 -1.787786
v -7.575972 0.580506 3.228570
v -7.575972 0.580506 3.228570
v -7.575972 0.580506 3.228570
v -6.697549 2.701207 0.543913
v -6.697549 2.701207 0.543913
v -6.697549 2.701207 0.543913
v -6.697549 2.701207 0.543913
v -6.697549 2.701207 0.543913
v -7.610226 2.303221 -1.787786
v -7.610226 2.303221 -1.787786
v -7.610226 2.303221 -1.787786
v -8.629198 1.284249 3.228570
v -8.629198 1.284249 3.228570
v -8.629198 1.284249 3.228570
v -8.629198 1.284249 3.228570
v -8.629198 1.284249 3.228570
v -8.629198 1.284249 3.228570
v -8.629198 1.284249 3.228570
v -8.629198 1.284249 3.228570
v -8.629198 1.284249 3.228570
v -7.006084 2.907363 0.543913
v -7.006084 2.907363 0.543913
v -7.006084 2.907363 0.543913
v -7.006084 2.907363 0.543913
v -7.006084 2.907363 0.543913
v -8.001591 2.888938 -1.787786
v -8.001591 2.888938 -1.787786
v -8.001591 2.888938 -1.787786
v -8.001591 2.888938 -1.787786
v -8.001591 2.888938 -1.787786
v -8.001591 2.888938 -1.787786
v -8.001591 2.888938 -1.787786
v -9.332942 2.337475 3.228570
v -9.332942 2.337475 3.228570
v -7.212241 3.215898 0.543913
v -7.212241 3.215898 0.543913
v -7.212241 3.215898 0.543913
v -7.212241 3.215898 0.543913
v -7.212241 3.215898 0.543913
v -7.212241 3.215898 0.543913
v -8.139020 3.579840 -1.787786
v -8.139020 3.579840 -1.787786
v -8.139020 3.579840 -1.787786
v -9.580063 3.579840 3.228570
v -9.580063 3.579840 3.228570
v -9.580063 3.579840 3.228570
v -9.580063 3.579840 3.228570
v -9.580063 3.579840 3.228570
v -9.580063 3.579840 3.228570
v -7.284633 3.579840 0.543913
v -7.284633 3.579840 0.543913
v -7.284633 3.579840 0.543913
v -7.284633 3.579840 0.543913
v -8.001591 4.270741 -1.787786
v -8.001591 4.270741 -1.787786
v -8.001591 4.270741 -1.787786
v -8.001591 4.270741 -1.787786
v -8.001591 4.270741 -1.787786
v -8.001591 4.270741 -1.787786
v -9.332942 4.822205 3.228570
v -9.332942 4.822205 3.228570
v -9.332942 4.822205 3.228570
v -7.212241 3.943782 0.543913
v -7.212241 3.943782 0.543913
v -7.212241 3.943782 0.543913
v -7.212241 3.943782 0.543913
v -7.212241 3.943782 0.543913
v -7.212241 3.943782 0.543913
v -7.610226 4.856459 -1.787786
v -7.610226 4.856459 -1.787786
v -7.610226 4.856459 -1.787786
v -7.610226 4.856459 -1.787786
v -8.629198 5.875431 3.228570
v -8.629198 5.875431 3.228570
v -8.629198 5.875431 3.228570
v -8.629198 5.875431 3.228570
v -8.629198 5.875431 3.228570
v -8.629198 5.875431 3.228570
v -7.006084 4.252316 0.543913
v -7.006084 4.252316 0.543913
v -7.006084 4.252316 0.543913
v -7.024508 5.247823 -1.787786
v -7.024508 5.247823 -1.787786
v -7.024508 5.247823 -1.787786
v -7.024508 5.247823 -1.787786
v -7.024508 5.247823 -1.787786
v -7.575972 6.579174 3.228570
v -7.575972 6.579174 3.228570
v -7.575972 6.579174 3.228570
v -6.697549 4.458473 0.543913
v -6.697549 4.458473 0.543913
v -6.697549 4.458473 0.543913
v -6.697549 4.458473 0.543913
v -6.697549 4.458473 0.543913
v -6.697549 4.458473 0.543913
v -6.333608 4.530866 0.543913
v -6.333608 4.530866 0.543913
v -6.333608 4.530866 0.543913
v -6.333608 4.530866 0.543913
v -6.333608 4.530866 0.543913
v -6.333608 4.530866 0.543913
v -5.430607 5.759875 1.886242
v -5.430607 5.759875 1.886242
v -5.430607 5.759875 1.886242
v -5.430607 5.759875 1.886242
v -5.430607 5.759875 1.886242
v -5.430607 5.759875 1.886242
v -4.665080 5.248366 1.886242
v -4.665080 5.248366 1.886242
v -4.665080 5.248366 1.886242
v -4.665080 5.248366 1.886242
v -4.665080 5.248366 1.886242
v -4.153572 4.482841 1.886242
v -4.153572 4.482841 1.886242
v -4.153572 4.482841 1.886242
v -4.153572 4.482841 1.886242
v -3.973954 3.579840 1.886242
v -3.973954 3.579840 1.886242
v -3.973954 3.579840 1.886242
v -3.973954 3.579840 1.886242
v -4.153572 2.676839 1.886242
v -4.153572 2.676839 1.886242
v -4.153572 2.676839 1.886242
v -4.153572 2.676839 1.886242
v -4.153572 2.676839 1.886242
v -4.665080 1.911313 1.886242
v -4.665080 1.911313 1.886242
v -4.665080 1.911313 1.886242
v -4.665080 1.911313 1.886242
v -4.665080 1.911313 1.886242
v -4.665080 1.911313 1.886242
v -5.430607 1.399804 1.886242
v -5.430607 1.399804 1.886242
v -5.430607 1.399804 1.886242
v -5.430607 1.399804 1.886242
v -5.430607 1.399804 1.886242
v -6.333608 1.220186 1.886242
v -6.333608 1.220186 1.886242
v -6.333608 1.220186 1.886242
v -6.333608 1.220186 1.886242
v -6.333608 1.220186 1.886242
v -6.333608 1.220186 1.886242
v -7.236609 1.399804 1.886242
v -7.236609 1.399804 1.886242
v -7.236609 1.399804 1.886242
v -7.236609 1.399804 1.886242
v -7.236609 1.399804 1.886242
v -8.002134 1.911313 1.886242
v -8.002134 1.911313 1.886242
v -8.002134 1.911313 1.886242
v -8.002134 1.911313 1.886242
v -8.513643 2.676839 1.886242
v -8.513643 2.676839 1.886242
v -8.513643 2.676839 1.886242
v -8.513643 2.676839 1.886242
v -8.513643 2.676839 1.886242
v -8.693261 3.579840 1.886242
v -8.693261 3.579840 1.886242
v -8.693261 3.579840 1.886242
v -8.693261 3.579840 1.886242
v -8.693261 3.579840 1.886242
v -8.513643 4.482841 1.886242
v -8.513643 4.482841 1.886242
v -8.513643 4.482841 1.886242
v -8.513643 4.482841 1.886242
v -8.002134 5.248366 1.886242
v -8.002134 5.248366 1.886242
v -8.002134 5.248366 1.886242
v -8.002134 5.248366 1.886242
v -8.002134 5.248366 1.886242
v -8.002134 5.248366 1.886242
v -7.236609 5.759875 1.886242
v -7.236609 5.759875 1.886242
v -7.236609 5.759875 1.886242
v -7.236609 5.759875 1.886242
v -7.236609 5.759875 1.886242
vn 0.1637 0.8231 -0.5438
vn 0.4663 0.6978 -0.5438
vn 0.6978 0.4662 -0.5438
vn 0.8231 0.1637 -0.5438
vn 0.8231 -0.1637 -0.5438
vn 0.6978 -0.4662 -0.5438
vn 0.4663 -0.6978 -0.5438
vn 0.1637 -0.8231 -0.5438
vn -0.1637 -0.8231 -0.5438
vn -0.4663 -0.6978 -0.5438
vn -0.6978 -0.4663 -0.5438
vn -0.8231 -0.1637 -0.5438
vn -0.8231 0.1637 -0.5438
vn -0.6978 0.4663 -0.5438
vn -0.0000 -0.0000 1.0000
vn -0.4663 0.6978 -0.5438
vn -0.1637 0.8231 -0.5438
vn -0.0000 -0.0000 -1.0000
vn -0.1836 0.9230 0.3382
vn -0.5228 0.7825 0.3382
vn -0.7825 0.5228 0.3382
vn -0.9230 0.1836 0.3382
vn -0.9230 -0.1836 0.3382
vn -0.7825 -0.5228 0.3382
vn -0.5228 -0.7825 0.3382
vn -0.1836 -0.9230 0.3382
vn 0.1836 -0.9230 0.3382
vn 0.5228 -0.7825 0.3382
vn 0.7825 -0.5228 0.3382
vn 0.9230 -0.1836 0.3382
vn 0.9230 0.1836 0.3382
vn 0.7825 0.5228 0.3382
vn 0.5228 0.7825 0.3382
vn 0.1836 0.9230 0.3382
vn -0.1359 0.6835 -0.7172
vn -0.3871 0.5794 -0.7172
vn -0.5794 0.3872 -0.7172
vn -0.6835 0.1359 -0.7172
vn -0.6835 -0.1359 -0.7172
vn -0.5794 -0.3872 -0.7172
vn -0.3871 -0.5794 -0.7172
vn -0.1359 -0.6835 -0.7172
vn 0.1359 -0.6835 -0.7172
vn 0.3871 -0.5794 -0.7172
vn 0.5794 -0.3871 -0.7172
vn 0.6835 -0.1359 -0.7172
vn 0.6835 0.1359 -0.7172
vn 0.5794 0.3871 -0.7172
vn 0.3871 0.5794 -0.7172
vn 0.1360 0.6835 -0.7172
vn 0.6978 0.4663 -0.5438
vn 0.6978 -0.4663 -0.5438
vn -0.5794 0.3871 -0.7172
vn -0.5794 -0.3871 -0.7172
vn 0.1359 0.6835 -0.7172
s 0
f 85//1 76//1 299//1
f 300//2 94//2 305//2
f 306//3 115//3 310//3
f 116//4 315//4 311//4
f 128//5 319//5 314//5
f 143//6 324//6 318//6
f 154//7 330//7 323//7
f 173//8 336//8 329//8
f 335//9 199//9 340//9
f 341//10 210//10 345//10
f 211//11 351//11 346//11
f 350//12 242//12 354//12
f 243//13 360//13 355//13
f 258//14 364//14 359//14
f 186//15 155//15 96//15
f 271//16 370//16 363//16
f 284//17 84//17 369//17
f 280//18 107//18 167//18
f 286//19 66//19 279//19
f 267//20 289//20 278//20
f 259//21 265//21 251//21
f 246//22 250//22 238//22
f 231//23 237//23 223//23
f 217//24 222//24 206//24
f 200//25 205//25 194//25
f 188//26 193//26 180//26
f 174//27 179//27 164//27
f 159//28 163//28 150//28
f 144//29 149//29 137//29
f 130//30 136//30 124//30
f 118//31 123//31 106//31
f 99//32 105//32 91//32
f 71//33 102//33 90//33
f 292//34 69//34 65//34
f 368//35 293//35 287//35
f 362//36 288//36 276//36
f 261//37 365//37 277//37
f 353//38 262//38 247//38
f 233//39 356//39 248//39
f 344//40 234//40 218//40
f 339//41 219//41 201//41
f 333//42 202//42 189//42
f 328//43 190//43 175//43
f 322//44 176//44 160//44
f 146//45 325//45 161//45
f 132//46 317//46 145//46
f 309//47 133//47 119//47
f 304//48 120//48 100//48
f 298//49 101//49 88//49
f 294//50 301//50 89//50
f 82//1 77//1 74//1
f 302//2 75//2 92//2
f 307//51 93//51 113//51
f 114//4 126//4 316//4
f 127//5 141//5 320//5
f 142//52 152//52 326//52
f 153//7 171//7 331//7
f 172//8 183//8 334//8
f 337//9 184//9 197//9
f 342//10 198//10 208//10
f 209//11 229//11 349//11
f 352//12 230//12 240//12
f 241//13 256//13 361//13
f 257//14 269//14 366//14
f 95//15 4//15 79//15
f 78//15 283//15 270//15
f 272//15 28//15 244//15
f 245//15 24//15 212//15
f 213//15 20//15 185//15
f 18//15 16//15 14//15
f 156//15 12//15 129//15
f 10//15 117//15 157//15
f 8//15 98//15 158//15
f 97//15 80//15 214//15
f 2//15 273//15 215//15
f 274//15 26//15 22//15
f 216//15 187//15 6//15
f 30//16 32//16 372//16
f 285//17 81//17 86//17
f 282//18 67//18 108//18
f 68//18 72//18 109//18
f 3//18 5//18 111//18
f 110//18 125//18 138//18
f 139//18 151//18 165//18
f 166//18 181//18 224//18
f 17//18 195//18 225//18
f 19//18 207//18 228//18
f 226//18 239//18 252//18
f 253//18 268//18 281//18
f 7//18 140//18 169//18
f 227//18 254//18 168//18
f 255//18 31//18 15//18
f 290//19 296//19 1//19
f 266//20 275//20 291//20
f 46//21 47//21 29//21
f 45//22 263//22 27//22
f 44//23 249//23 25//23
f 43//24 235//24 23//24
f 42//25 220//25 21//25
f 41//26 203//26 196//26
f 40//27 191//27 182//27
f 39//28 177//28 170//28
f 38//29 162//29 13//29
f 37//30 147//30 11//30
f 36//31 134//31 9//31
f 35//32 121//32 112//32
f 70//33 87//33 103//33
f 297//34 34//34 73//34
f 371//35 83//35 295//35
f 63//36 64//36 48//36
f 260//53 358//53 367//53
f 61//38 62//38 264//38
f 232//39 348//39 357//39
f 59//54 60//54 236//54
f 58//41 347//41 221//41
f 57//42 343//42 204//42
f 56//43 338//43 192//43
f 55//44 332//44 178//44
f 148//45 54//45 327//45
f 131//46 313//46 321//46
f 52//47 53//47 135//47
f 51//48 312//48 122//48
f 50//49 308//49 104//49
f 33//55 49//55 303//55
